<svg xmlns="http://www.w3.org/2000/svg" viewBox="0 0 220 220" width="220" height="220" role="img" aria-label="Test WeChat Pay QR code">
  <rect width="220" height="220" fill="#fff"/>
  <rect x="8" y="8" width="204" height="204" fill="#fff" stroke="#07c160" stroke-width="4" rx="8"/>
  <g fill="#111">
    <rect x="24" y="24" width="56" height="56" rx="4"/>
    <rect x="36" y="36" width="32" height="32" fill="#fff"/>
    <rect x="44" y="44" width="16" height="16"/>
    <rect x="140" y="24" width="56" height="56" rx="4"/>
    <rect x="152" y="36" width="32" height="32" fill="#fff"/>
    <rect x="160" y="44" width="16" height="16"/>
    <rect x="24" y="140" width="56" height="56" rx="4"/>
    <rect x="36" y="152" width="32" height="32" fill="#fff"/>
    <rect x="44" y="160" width="16" height="16"/>
  </g>
  <g fill="#07c160">
    <rect x="96" y="28" width="8" height="8"/><rect x="112" y="36" width="8" height="8"/><rect x="128" y="28" width="8" height="8"/>
    <rect x="88" y="44" width="8" height="8"/><rect x="104" y="52" width="8" height="8"/><rect x="120" y="44" width="8" height="8"/>
    <rect x="136" y="52" width="8" height="8"/><rect x="152" y="44" width="8" height="8"/><rect x="168" y="52" width="8" height="8"/>
    <rect x="96" y="68" width="8" height="8"/><rect x="112" y="76" width="8" height="8"/><rect x="128" y="68" width="8" height="8"/>
    <rect x="88" y="92" width="8" height="8"/><rect x="104" y="100" width="8" height="8"/><rect x="120" y="108" width="8" height="8"/>
    <rect x="136" y="92" width="8" height="8"/><rect x="152" y="100" width="8" height="8"/><rect x="168" y="108" width="8" height="8"/>
    <rect x="96" y="124" width="8" height="8"/><rect x="112" y="132" width="8" height="8"/><rect x="128" y="140" width="8" height="8"/>
    <rect x="144" y="124" width="8" height="8"/><rect x="160" y="132" width="8" height="8"/><rect x="176" y="140" width="8" height="8"/>
    <rect x="96" y="156" width="8" height="8"/><rect x="112" y="164" width="8" height="8"/><rect x="128" y="172" width="8" height="8"/>
  </g>
  <text x="110" y="210" text-anchor="middle" font-family="Arial,sans-serif" font-size="11" fill="#07c160" font-weight="700">TEST · WECHAT PAY</text>
</svg>
